<svg width="29" height="23" viewBox="0 0 29 23" fill="none" xmlns="http://www.w3.org/2000/svg">
<path d="M28.6667 11.3333L24.6001 9.82667C24.2534 8.29333 23.3867 7.41333 23.3867 7.41333C21.2001 5.22667 17.6667 5.22667 15.4801 7.41333L13.5067 9.38667L4.66675 0C3.33341 5.33333 4.66675 10.6667 7.93341 14.96L0.666748 22C0.666748 22 12.5201 24.6667 19.4267 19.2667C23.1067 16.3867 23.9334 14.7067 24.4534 12.9333L28.6667 11.3333ZM21.6134 11.6267C21.0934 12.1467 20.2401 12.1467 19.7201 11.6267C19.2001 11.1067 19.2001 10.2667 19.7201 9.74667C20.2401 9.22667 21.0934 9.22667 21.6134 9.74667C22.1334 10.2667 22.1334 11.1067 21.6134 11.6267Z" fill="#6D6D6D"/>
</svg>
