<svg width="23" height="27" viewBox="0 0 23 27" fill="none" xmlns="http://www.w3.org/2000/svg">
<path d="M22.6667 7.66828L21.1175 7.04767C20.9854 6.41606 20.6552 6.05358 20.6552 6.05358C19.8222 5.15286 18.4762 5.15286 17.6432 6.05358L16.8914 6.86643L13.5238 2.99992C13.0159 5.1968 13.5238 7.39368 14.7683 9.16216L12 12.062C12 12.062 16.5156 13.1605 19.1467 10.9361C20.5486 9.74983 20.8635 9.05781 21.0616 8.32735L22.6667 7.66828ZM19.9797 7.78911C19.7816 8.00331 19.4565 8.00331 19.2584 7.78911C19.0603 7.57492 19.0603 7.22891 19.2584 7.01471C19.4565 6.80052 19.7816 6.80052 19.9797 7.01471C20.1778 7.22891 20.1778 7.57492 19.9797 7.78911Z" fill="#F3F3F3"/>
<path d="M9.33333 4.33471L7.97778 3.80275C7.86222 3.26138 7.57333 2.95068 7.57333 2.95068C6.84444 2.17863 5.66667 2.17863 4.93778 2.95068L4.28 3.6474L1.33333 0.333252C0.888889 2.21629 1.33333 4.09933 2.42222 5.61518L0 8.10079C0 8.10079 3.95111 9.04231 6.25333 7.13573C7.48 6.11889 7.75556 5.52573 7.92889 4.89962L9.33333 4.33471ZM6.98222 4.43828C6.80889 4.62187 6.52444 4.62187 6.35111 4.43828C6.17778 4.25468 6.17778 3.9581 6.35111 3.77451C6.52444 3.59091 6.80889 3.59091 6.98222 3.77451C7.15556 3.9581 7.15556 4.25468 6.98222 4.43828Z" fill="#F3F3F3"/>
<path d="M22.6667 19.0028L19.9556 17.9389C19.7244 16.8562 19.1467 16.2348 19.1467 16.2348C17.6889 14.6907 15.3333 14.6907 13.8756 16.2348L12.56 17.6282L6.66667 10.9999C5.77778 14.766 6.66667 18.5321 8.84444 21.5638L4 26.535C4 26.535 11.9022 28.418 16.5067 24.6049C18.96 22.5712 19.5111 21.3849 19.8578 20.1327L22.6667 19.0028ZM17.9644 19.21C17.6178 19.5772 17.0489 19.5772 16.7022 19.21C16.3556 18.8428 16.3556 18.2496 16.7022 17.8824C17.0489 17.5152 17.6178 17.5152 17.9644 17.8824C18.3111 18.2496 18.3111 18.8428 17.9644 19.21Z" fill="#F3F3F3"/>
</svg>
