<svg width="30" height="24" viewBox="0 0 30 24" fill="none" xmlns="http://www.w3.org/2000/svg">
<path d="M16.3333 21.3333H20.3333V24H4.33325C3.27239 24 2.25497 23.5786 1.50482 22.8284C0.754679 22.0783 0.333252 21.0609 0.333252 20V18.6667H2.99992V20C2.99992 20.3536 3.14039 20.6928 3.39044 20.9428C3.64049 21.1929 3.97963 21.3333 4.33325 21.3333H5.66658H8.33325H13.6666H16.3333Z" fill="#F3F3F3"/>
<path fill-rule="evenodd" clip-rule="evenodd" d="M29.6666 4V10L18.6666 12.2667C18.8799 12.8 18.9999 13.3867 18.9999 14C18.9999 15.8667 17.9066 17.4667 16.3333 18.2133C16.1851 18.2953 15.237 18.6667 13.6666 18.6667H8.33325C7.77029 18.6667 7.05918 18.6667 5.66658 18.32C3.33325 17.5067 1.66659 15.28 1.66659 12.6667C1.66659 9.33333 4.33325 6.66667 7.66658 6.66667H10.9999V4H13.6666V6.66667H26.9999V4H29.6666ZM5.66658 12C5.66658 10.5333 7.15992 9.33333 8.99992 9.33333C10.8399 9.33333 12.3333 10.5333 12.3333 12C12.3333 13.4667 10.8399 14.6667 8.99992 14.6667C7.15992 14.6667 5.66658 13.4667 5.66658 12Z" fill="#F3F3F3"/>
<path fill-rule="evenodd" clip-rule="evenodd" d="M21.6666 0H2.99992V2.66667H21.6666V0Z" fill="#F3F3F3"/>
</svg>
