<svg width="27" height="26" viewBox="0 0 27 26" fill="none" xmlns="http://www.w3.org/2000/svg">
<path d="M7.05831 19.463C6.57709 18.9818 5.78785 18.2311 6.09621 17.9227C6.15834 17.8606 6.51881 17.4741 7.08589 16.8628L0.800133 16.8666L6.0522 11.6145C6.23959 11.4272 6.49369 11.3218 6.7587 11.3217L12.2117 11.3183C14.2338 9.12795 16.451 6.96235 17.9558 5.33014C19.2992 3.98675 22.1005 0.936274 25.3493 0.234558C25.9217 0.110927 26.4104 0.599589 26.2867 1.17197C25.585 4.42077 22.5346 7.22207 21.1912 8.56546C19.559 10.0703 17.3934 12.2875 15.203 14.3096L15.1997 19.7626C15.1995 20.0276 15.0942 20.2817 14.9068 20.4691L9.65469 25.7212L9.65854 19.4354C9.04724 20.0025 8.66072 20.363 8.59859 20.4251C8.29023 20.7335 7.44329 19.848 7.05831 19.463Z" fill="#6D6D6D"/>
</svg>
