<svg width="30" height="30" viewBox="0 0 30 30" fill="none" xmlns="http://www.w3.org/2000/svg">
<path d="M6.33325 0.333252C9.66658 0.333252 12.3333 2.99992 12.3333 6.33325C12.3333 7.50658 11.9999 8.59992 11.4133 9.53325L11.5466 9.66658H18.4533L18.5866 9.53325C17.9999 8.59992 17.6666 7.50658 17.6666 6.33325C17.6666 2.99992 20.3333 0.333252 23.6666 0.333252C26.9999 0.333252 29.6666 2.99992 29.6666 6.33325C29.6666 9.66658 26.9999 12.3333 23.6666 12.3333C22.4932 12.3333 21.3999 11.9999 20.4666 11.4133L18.9999 12.8799V17.1199L20.4666 18.5866C21.3999 17.9999 22.4932 17.6666 23.6666 17.6666C26.9999 17.6666 29.6666 20.3333 29.6666 23.6666C29.6666 26.9999 26.9999 29.6666 23.6666 29.6666C20.3333 29.6666 17.6666 26.9999 17.6666 23.6666C17.6666 22.4932 17.9999 21.3999 18.5866 20.4666L18.4533 20.3333H11.5466L11.4133 20.4666C11.9999 21.3999 12.3333 22.4932 12.3333 23.6666C12.3333 26.9999 9.66658 29.6666 6.33325 29.6666C2.99992 29.6666 0.333252 26.9999 0.333252 23.6666C0.333252 20.3333 2.99992 17.6666 6.33325 17.6666C7.50658 17.6666 8.59992 17.9999 9.53325 18.5866L10.9999 17.1199V12.8799L9.53325 11.4133C8.59992 11.9999 7.50658 12.3333 6.33325 12.3333C2.99992 12.3333 0.333252 9.66658 0.333252 6.33325C0.333252 2.99992 2.99992 0.333252 6.33325 0.333252ZM6.33325 2.99992C5.4492 2.99992 4.60135 3.35111 3.97623 3.97623C3.35111 4.60135 2.99992 5.4492 2.99992 6.33325C2.99992 7.21731 3.35111 8.06515 3.97623 8.69027C4.60135 9.3154 5.4492 9.66658 6.33325 9.66658C7.21731 9.66658 8.06515 9.3154 8.69027 8.69027C9.3154 8.06515 9.66658 7.21731 9.66658 6.33325C9.66658 5.4492 9.3154 4.60135 8.69027 3.97623C8.06515 3.35111 7.21731 2.99992 6.33325 2.99992ZM6.33325 20.3333C5.4492 20.3333 4.60135 20.6844 3.97623 21.3096C3.35111 21.9347 2.99992 22.7825 2.99992 23.6666C2.99992 24.5506 3.35111 25.3985 3.97623 26.0236C4.60135 26.6487 5.4492 26.9999 6.33325 26.9999C7.21731 26.9999 8.06515 26.6487 8.69027 26.0236C9.3154 25.3985 9.66658 24.5506 9.66658 23.6666C9.66658 22.7825 9.3154 21.9347 8.69027 21.3096C8.06515 20.6844 7.21731 20.3333 6.33325 20.3333ZM23.6666 2.99992C22.7825 2.99992 21.9347 3.35111 21.3096 3.97623C20.6844 4.60135 20.3333 5.4492 20.3333 6.33325C20.3333 7.21731 20.6844 8.06515 21.3096 8.69027C21.9347 9.3154 22.7825 9.66658 23.6666 9.66658C24.5506 9.66658 25.3985 9.3154 26.0236 8.69027C26.6487 8.06515 26.9999 7.21731 26.9999 6.33325C26.9999 5.4492 26.6487 4.60135 26.0236 3.97623C25.3985 3.35111 24.5506 2.99992 23.6666 2.99992ZM23.6666 20.3333C22.7825 20.3333 21.9347 20.6844 21.3096 21.3096C20.6844 21.9347 20.3333 22.7825 20.3333 23.6666C20.3333 24.5506 20.6844 25.3985 21.3096 26.0236C21.9347 26.6487 22.7825 26.9999 23.6666 26.9999C24.5506 26.9999 25.3985 26.6487 26.0236 26.0236C26.6487 25.3985 26.9999 24.5506 26.9999 23.6666C26.9999 22.7825 26.6487 21.9347 26.0236 21.3096C25.3985 20.6844 24.5506 20.3333 23.6666 20.3333ZM4.21325 21.9999L5.71992 22.8799C5.89325 22.7466 6.10659 22.6666 6.33325 22.6666C6.59847 22.6666 6.85282 22.7719 7.04036 22.9595C7.22789 23.147 7.33325 23.4014 7.33325 23.6666L7.31992 23.7999L8.82658 24.6666L8.45325 25.3333L6.94659 24.4533C6.77325 24.5866 6.55992 24.6666 6.33325 24.6666C6.06804 24.6666 5.81368 24.5612 5.62614 24.3737C5.43861 24.1862 5.33325 23.9318 5.33325 23.6666L5.34659 23.5333L3.83992 22.6666L4.21325 21.9999ZM3.83992 7.33325L5.34659 6.46658L5.33325 6.33325C5.33325 6.06804 5.43861 5.81368 5.62614 5.62614C5.81368 5.43861 6.06804 5.33325 6.33325 5.33325C6.55992 5.33325 6.77325 5.41325 6.94659 5.54658L8.45325 4.66658L8.82658 5.33325L7.31992 6.19992L7.33325 6.33325C7.33325 6.59847 7.22789 6.85282 7.04036 7.04036C6.85282 7.22789 6.59847 7.33325 6.33325 7.33325C6.10659 7.33325 5.89325 7.25325 5.71992 7.11992L4.21325 7.99992L3.83992 7.33325ZM21.5466 4.66658L23.0533 5.54658C23.2266 5.41325 23.4399 5.33325 23.6666 5.33325C23.9318 5.33325 24.1862 5.43861 24.3737 5.62614C24.5612 5.81368 24.6666 6.06804 24.6666 6.33325L24.6532 6.46658L26.1599 7.33325L25.7866 7.99992L24.2799 7.11992C24.1066 7.25325 23.8933 7.33325 23.6666 7.33325C23.4014 7.33325 23.147 7.22789 22.9595 7.04036C22.7719 6.85282 22.6666 6.59847 22.6666 6.33325L22.6799 6.19992L21.1733 5.33325L21.5466 4.66658ZM21.1733 24.6666L22.6666 23.6666C22.6666 23.4014 22.7719 23.147 22.9595 22.9595C23.147 22.7719 23.4014 22.6666 23.6666 22.6666C23.8933 22.6666 24.1066 22.7466 24.2799 22.8799L25.7866 21.9999L26.1599 22.6666L24.6666 23.6666C24.6666 23.9318 24.5612 24.1862 24.3737 24.3737C24.1862 24.5612 23.9318 24.6666 23.6666 24.6666C23.4399 24.6666 23.2266 24.5866 23.0533 24.4533L21.5466 25.3333L21.1733 24.6666Z" fill="#F3F3F3"/>
</svg>
