<svg width="28" height="28" viewBox="0 0 28 28" fill="none" xmlns="http://www.w3.org/2000/svg">
<path d="M14.0001 23.6001C10.6667 23.6001 7.72008 21.8934 6.00008 19.3334C6.04008 16.6667 11.3334 15.2001 14.0001 15.2001C16.6667 15.2001 21.9601 16.6667 22.0001 19.3334C20.2801 21.8934 17.3334 23.6001 14.0001 23.6001ZM14.0001 4.66675C15.0609 4.66675 16.0784 5.08818 16.8285 5.83832C17.5787 6.58847 18.0001 7.60588 18.0001 8.66675C18.0001 9.72761 17.5787 10.745 16.8285 11.4952C16.0784 12.2453 15.0609 12.6667 14.0001 12.6667C12.9392 12.6667 11.9218 12.2453 11.1717 11.4952C10.4215 10.745 10.0001 9.72761 10.0001 8.66675C10.0001 7.60588 10.4215 6.58847 11.1717 5.83832C11.9218 5.08818 12.9392 4.66675 14.0001 4.66675ZM14.0001 0.666748C12.2491 0.666748 10.5153 1.01162 8.89764 1.68169C7.27996 2.35175 5.81011 3.33388 4.57199 4.57199C2.07151 7.07248 0.666748 10.4639 0.666748 14.0001C0.666748 17.5363 2.07151 20.9277 4.57199 23.4282C5.81011 24.6663 7.27996 25.6484 8.89764 26.3185C10.5153 26.9885 12.2491 27.3334 14.0001 27.3334C17.5363 27.3334 20.9277 25.9287 23.4282 23.4282C25.9287 20.9277 27.3334 17.5363 27.3334 14.0001C27.3334 6.62675 21.3334 0.666748 14.0001 0.666748Z" fill="#F3F3F3"/>
</svg>
