<svg width="28" height="28" viewBox="0 0 28 28" fill="none" xmlns="http://www.w3.org/2000/svg">
<path d="M18.0934 13.0001L16.8934 14.2267C15.9334 15.1867 15.3334 16.0001 15.3334 18.0001H12.6667V17.3334C12.6667 15.8534 13.2667 14.5201 14.2267 13.5601L15.8801 11.8801C16.3734 11.4001 16.6667 10.7334 16.6667 10.0001C16.6667 8.52008 15.4667 7.33341 14.0001 7.33341C13.2928 7.33341 12.6146 7.61437 12.1145 8.11446C11.6144 8.61456 11.3334 9.29284 11.3334 10.0001H8.66675C8.66675 8.58559 9.22865 7.22904 10.2288 6.22884C11.229 5.22865 12.5856 4.66675 14.0001 4.66675C15.4146 4.66675 16.7711 5.22865 17.7713 6.22884C18.7715 7.22904 19.3334 8.58559 19.3334 10.0001C19.3334 11.1734 18.8534 12.2267 18.0934 13.0001ZM15.3334 23.3334H12.6667V20.6667H15.3334M14.0001 0.666748C12.2491 0.666748 10.5153 1.01162 8.89763 1.68169C7.27996 2.35175 5.81011 3.33388 4.57199 4.57199C2.07151 7.07248 0.666748 10.4639 0.666748 14.0001C0.666748 17.5363 2.07151 20.9277 4.57199 23.4282C5.81011 24.6663 7.27996 25.6484 8.89763 26.3185C10.5153 26.9885 12.2491 27.3334 14.0001 27.3334C17.5363 27.3334 20.9277 25.9287 23.4282 23.4282C25.9287 20.9277 27.3334 17.5363 27.3334 14.0001C27.3334 6.62675 21.3334 0.666748 14.0001 0.666748Z" fill="#F3F3F3"/>
</svg>
