<svg width="117" height="117" viewBox="0 0 117 117" fill="none" xmlns="http://www.w3.org/2000/svg">
<path d="M55.6843 0.905518C53.2877 1.42798 51.0078 2.62077 49.1445 4.4839L4.44641 49.1775C2.5282 51.0955 1.32048 53.4549 0.823242 55.9287H21.3624C22.6167 37.4997 37.287 22.7535 55.6843 21.3779V0.905518Z" fill="#673AB3"/>
<path d="M4.44647 67.9302C2.52944 66.0134 1.32203 63.6557 0.824219 61.1836H21.3712C22.1188 71.6515 27.1959 80.922 34.8217 87.2148C40.5787 91.9653 47.7883 95.0188 55.6844 95.6092V116.202C53.2878 115.68 51.0079 114.487 49.1446 112.624L4.44647 67.9302Z" fill="#673AB3"/>
<path d="M60.9404 95.6354V116.287C63.4899 115.816 65.9281 114.595 67.8998 112.624L112.598 67.9302C114.515 66.0134 115.722 63.6557 116.22 61.1836H95.6289C94.5405 76.4225 84.2771 89.1238 70.3318 93.7947C67.3516 94.7929 64.2033 95.4243 60.9404 95.6354Z" fill="#673AB3"/>
<path d="M95.6377 55.9289H116.221C115.723 53.4551 114.516 51.0957 112.598 49.1777L67.8998 4.48409C65.9281 2.51251 63.4899 1.29157 60.9404 0.821289V21.352C68.2233 21.8232 74.9355 24.3886 80.481 28.452C89.0775 34.7512 94.87 44.6504 95.6377 55.9289Z" fill="#673AB3"/>
<path d="M64.9437 58.4937C64.9437 62.1904 61.9747 65.1871 58.3122 65.1871C54.6497 65.1871 51.6807 62.1904 51.6807 58.4937C51.6807 54.7971 54.6497 51.8003 58.3122 51.8003C61.9747 51.8003 64.9437 54.7971 64.9437 58.4937Z" fill="#673AB3"/>
<path fill-rule="evenodd" clip-rule="evenodd" d="M54.9106 41.1618L41.1401 55.0569C39.1983 57.0163 39.2127 60.1787 41.1722 62.1203L55.0687 75.8895C57.0283 77.8311 60.191 77.8167 62.1328 75.8573L75.9033 61.9623C77.8452 60.0029 77.8308 56.8405 75.8712 54.8989L61.9747 41.1297C60.0151 39.1881 56.8524 39.2025 54.9106 41.1618ZM35.2684 49.239C30.1131 54.4409 30.1513 62.8366 35.3538 67.9914L49.2502 81.7605C54.4526 86.9153 62.8492 86.8771 68.0045 81.6752L81.775 67.7801C86.9303 62.5783 86.8921 54.1825 81.6897 49.0278L67.7932 35.2586C62.5908 30.1039 54.1942 30.1421 49.039 35.344L35.2684 49.239Z" fill="#673AB3"/>
</svg>
