<?xml version="1.0" encoding="UTF-8"?>
<!-- Created with Inkscape (http://www.inkscape.org/) -->
<svg width="35.92mm" height="38.173mm" version="1.1" viewBox="0 0 35.92 38.173" xmlns="http://www.w3.org/2000/svg" xmlns:cc="http://creativecommons.org/ns#" xmlns:dc="http://purl.org/dc/elements/1.1/" xmlns:rdf="http://www.w3.org/1999/02/22-rdf-syntax-ns#">
 <metadata>
  <rdf:RDF>
   <cc:Work rdf:about="">
    <dc:format>image/svg+xml</dc:format>
    <dc:type rdf:resource="http://purl.org/dc/dcmitype/StillImage"/>
    <dc:title/>
   </cc:Work>
  </rdf:RDF>
 </metadata>
 <g transform="translate(-106.02 -73.807)">
  <path d="m119.85 103.68c0.49329-0.0611 0.90767-0.12129 0.92084-0.13371 0.039-0.0368-0.29176-0.36124-0.45559-0.44683-0.19304-0.10085-0.57062-0.10105-0.90479-5.3e-4l-0.26115 0.0786-2e-3 -0.20472c-1e-3 -0.1126-0.11187-1.5921-0.24611-3.2878-0.13425-1.6957-0.23512-3.0927-0.22418-3.1044 0.027-0.02895 1.8696-0.39902 1.9868-0.39902 0.0665 0 0.31051 0.44631 0.8506 1.5555l0.7574 1.5555 0.17689 2.018c0.0973 1.1099 0.17669 2.0495 0.17647 2.0881-2.3e-4 0.0385 0.0374 0.0701 0.0837 0.0701s0.0778 0.0315 0.0701 0.0701c-8e-3 0.0385 0.0238 0.0656 0.0701 0.0601 0.49277 0.29126 2.1739 0.18499 2.2324 0.15324 0.10267-0.0557-0.24235-0.80744-0.45327-0.66498-0.0368 0.0249-1.037-0.2721-1.3818-0.0974-0.16299 0.0826-0.30222 0.14216-0.3094 0.13238-7e-3 -0.01-0.0902-0.90066-0.18459-1.9797l-0.17153-1.962-0.75628-1.5415c-0.41596-0.84784-0.751-1.5477-0.74452-1.5551 7e-3 -0.0075 0.32325-0.07703 0.70396-0.15457 0.3807-0.07754 0.70029-0.14907 0.71018-0.15897 0.01-0.0099-0.78278-0.90106-1.7615-1.9804-0.97873-1.0793-1.828-2.0174-1.8872-2.0846-0.10641-0.12085-0.10611-0.12724 0.0259-0.54803 0.0734-0.23416 0.15972-0.4331 0.19174-0.44209 0.88656-0.24871 0.98801-0.26889 1.0484-0.20856 0.048 0.048 0.12152 0.03037 0.2937-0.07044l0.22978-0.13447 5.5768 1.2541c3.6195 0.81393 5.5895 1.2335 5.613 1.1956 0.0199-0.0322 0.0648-0.27628 0.0998-0.54241 0.2636-2.006 0.20549-3.9486-0.16623-5.5569-0.14963-0.64742-0.41697-1.4555-0.64783-1.9581-0.10524-0.22911-0.17194-0.43412-0.14825-0.45556 0.0394-0.03568 1.6468-0.89362 1.6742-0.89362 7e-3 0 0.0777 0.11221 0.15805 0.24935 0.0804 0.13714 0.17181 0.26522 0.20319 0.28462 0.0314 0.0194 0.15091-0.04565 0.2656-0.14455 0.42271-0.3645 2.0864-1.9699 2.0864-2.0133 0-0.0497-0.9094 0.21139-2.4412 0.7009l-1.0062 0.32153 0.16193 0.11854c0.41856 0.30639 0.45834 0.2413-0.44423 0.72679-0.44999 0.24205-0.82417 0.43124-0.8315 0.42042-7e-3 -0.01082-0.21234-0.32157-0.45555-0.69055-0.53424-0.81052-1.4696-1.7747-2.2705-2.3404-0.5313-0.37533-1.5686-0.94467-2.1049-1.1553l-0.28306-0.11117-0.15982 0.28905c-0.32623 0.59003-3.3025 5.8955-3.3198 5.9178-0.0192 0.02484-1.6506 0.3874-3.2976 0.73286-0.55495 0.1164-1.0246 0.19571-1.0436 0.17624-0.0191-0.01947-0.0494-0.1148-0.0675-0.21184-0.0289-0.15515-0.0135-0.18446 0.12756-0.2429 0.26048-0.10789 0.64603-0.51878 0.82081-0.87475 0.14829-0.30201 0.16278-0.38394 0.16278-0.92012 0-0.5217-0.0171-0.62512-0.15068-0.91009-0.20714-0.44198-0.39354-0.67153-0.73524-0.90544-1.1647-0.79731-2.6322-0.11248-2.8356 1.3233-0.17018 1.2017 0.60597 2.3063 1.7399 2.4764 0.23321 0.03497 0.26228 0.05609 0.29375 0.21348 0.0192 0.09606 0.0235 0.1861 0.01 0.20007-0.014 0.01397-0.59569 0.14312-1.2927 0.28699-0.69701 0.14387-1.252 0.27684-1.2334 0.2955 0.0187 0.01865-0.28231 0.7925-0.66881 1.7197-0.41866 1.0043-0.68848 1.7229-0.66749 1.7776 0.0312 0.0812 0.12005 0.08759 0.76992 0.05538 0.40409-0.02003 1.4005-0.05773 2.2143-0.08379l1.4796-0.04738 0.31418 0.33781c0.17279 0.1858 0.32108 0.35536 0.32953 0.3768 8e-3 0.02144-0.39084 1.2061-0.8873 2.6325-0.49646 1.4264-0.89315 2.603-0.88152 2.6146 0.0116 0.01162 0.36851-0.05118 0.79307-0.13955 0.54579-0.11361 0.77763-0.14177 0.79135-0.09613 0.0107 0.03551 0.13419 1.5624 0.27448 3.3932 0.22639 2.9544 0.24583 3.3418 0.17291 3.4459-0.12504 0.17853-0.1015 0.2614 0.072 0.2535 0.0848-4e-3 0.55776-0.057 1.051-0.11815zm8.3453-11.783c-1.846-0.41403-4.214-0.94465-5.2622-1.1792s-1.9552-0.44646-2.0155-0.471c-0.0927-0.03772-0.0559-0.07329 0.23804-0.22994l0.3477-0.18532-0.22514-0.36427 4.3687-2.3615c2.4028-1.2988 4.4778-2.411 4.6112-2.4716 0.33658-0.15274 0.4626-0.14317 0.54803 0.04163 0.33731 0.72965 0.65309 1.7804 0.84656 2.8168 0.17197 0.92129 0.21689 3.0367 0.0863 4.064-0.0988 0.77704-0.14867 1.0931-0.17253 1.0931-8e-3 0-1.5251-0.33875-3.3711-0.75278zm-13.805-2.5751c0.31398-0.75946 0.59051-1.3808 0.6145-1.3808 0.024 0 0.5916 0.59909 1.2614 1.3313l1.2178 1.3313-0.21846 0.03883c-0.12016 0.02135-0.71036 0.04295-1.3116 0.04799-0.6012 5e-3 -1.3201 0.02541-1.5976 0.04527-0.27748 0.01986-0.51179 0.02055-0.5207 0.0015-9e-3 -0.01901 0.2407-0.65594 0.55469-1.4154v-2e-6zm4.8148 0.92244c0-0.0405 1.1733-3.4764 1.2021-3.5201 0.0196-0.0297 1.3838-0.30354 1.4309-0.28723 0.0295 0.0102-0.29788 0.64917-0.72743 1.4199-0.73486 1.3186-0.79682 1.411-1.049 1.5637-0.1474 0.08926-0.32646 0.19816-0.39791 0.242l-0.1299 0.07971 0.14716 0.19294c0.10534 0.1381 0.12633 0.1995 0.0738 0.21601-0.0403 0.01269-0.14899 0.04831-0.24148 0.07914-0.21867 0.07291-0.30831 0.07694-0.30831 0.01386zm1.4811-1.1633-0.19173 0.09143 0.16525-0.29336c0.0909-0.16135 0.44131-0.78478 0.77873-1.3854 0.33742-0.60062 0.64772-1.1107 0.68956-1.1334 0.0881-0.04797 7.1741-1.5705 7.1968-1.5464 8e-3 0.0089-1.83 1.0165-4.0853 2.2392l-4.1005 2.2231-0.13056-0.14328c-0.12775-0.14021-0.13466-0.14132-0.32227-0.05186zm2.8099-5.2389c1.4237-2.511 2.1614-3.7547 2.2465-3.7874 0.14306-0.0549 1.8327 0.87751 2.4682 1.362 0.59106 0.45065 1.465 1.3864 1.8848 2.0181 0.20258 0.30482 0.37651 0.58968 0.38652 0.63303 0.0142 0.06127-0.88682 0.27467-4.0458 0.9583-2.2352 0.48372-4.0713 0.87399-4.0802 0.86729-9e-3 -0.0067 0.5041-0.92983 1.14-2.0514z" fill="#fff"/>
  <path d="m123.98 74.177-17.58 6.1716 2.6183 23.19 14.587 8.0418 15.149-8.0418 2.8053-23.19z" fill="none" stroke="#fff" stroke-width=".7"/>
 </g>
</svg>
