<?xml version="1.0" encoding="UTF-8" standalone="no"?>
<svg
   xmlns:dc="http://purl.org/dc/elements/1.1/"
   xmlns:cc="http://creativecommons.org/ns#"
   xmlns:rdf="http://www.w3.org/1999/02/22-rdf-syntax-ns#"
   xmlns:svg="http://www.w3.org/2000/svg"
   xmlns="http://www.w3.org/2000/svg"
   id="svg4585"
   version="1.1"
   viewBox="0 0 35.919872 38.172661"
   height="38.172661mm"
   width="35.919872mm">
  <defs
     id="defs4579" />
  <metadata
     id="metadata4582">
    <rdf:RDF>
      <cc:Work
         rdf:about="">
        <dc:format>image/svg+xml</dc:format>
        <dc:type
           rdf:resource="http://purl.org/dc/dcmitype/StillImage" />
        <dc:title></dc:title>
      </cc:Work>
    </rdf:RDF>
  </metadata>
  <g
     transform="translate(-106.01625,-73.806529)"
     id="layer1">
    <path
       style="display:inline;fill:#ffffff;fill-opacity:1;stroke:#ffffff;stroke-width:0.26458332;stroke-opacity:1"
       d="m 119.84682,103.68212 c 0.49329,-0.0611 0.90767,-0.12129 0.92084,-0.13371 0.039,-0.0368 -0.29176,-0.36124 -0.45559,-0.44683 -0.19304,-0.10085 -0.57062,-0.10105 -0.90479,-5.3e-4 l -0.26115,0.0786 -0.002,-0.20472 c -0.001,-0.1126 -0.11187,-1.5921 -0.24611,-3.287791 -0.13425,-1.695689 -0.23512,-3.092688 -0.22418,-3.104441 0.027,-0.02895 1.86958,-0.399023 1.98684,-0.399023 0.0665,0 0.31051,0.44631 0.8506,1.555548 l 0.7574,1.555548 0.17689,2.018009 c 0.0973,1.10991 0.17669,2.04954 0.17647,2.08808 -2.3e-4,0.0385 0.0374,0.0701 0.0837,0.0701 0.0463,0 0.0778,0.0315 0.0701,0.0701 -0.008,0.0385 0.0238,0.0656 0.0701,0.0601 0.49277,0.29126 2.1739,0.18499 2.23237,0.15324 0.10267,-0.0557 -0.24235,-0.80744 -0.45327,-0.66498 -0.0368,0.0249 -1.03705,-0.2721 -1.3818,-0.0974 -0.16299,0.0826 -0.30222,0.14216 -0.3094,0.13238 -0.007,-0.01 -0.0902,-0.90066 -0.18459,-1.97973 l -0.17153,-1.961956 -0.75628,-1.541534 c -0.41596,-0.847844 -0.751,-1.547652 -0.74452,-1.55513 0.007,-0.0075 0.32325,-0.07703 0.70396,-0.154571 0.3807,-0.07754 0.70029,-0.149073 0.71018,-0.158969 0.01,-0.0099 -0.78278,-0.901062 -1.7615,-1.980369 -0.97873,-1.079307 -1.82795,-2.017399 -1.88716,-2.08465 -0.10641,-0.120848 -0.10611,-0.127241 0.0259,-0.548029 0.0734,-0.234165 0.15972,-0.433105 0.19174,-0.442088 0.88656,-0.248713 0.98801,-0.268894 1.04835,-0.208556 0.048,0.048 0.12152,0.03037 0.2937,-0.07044 l 0.22978,-0.134472 5.57679,1.254107 c 3.61946,0.813933 5.58947,1.233549 5.61296,1.195557 0.0199,-0.0322 0.0648,-0.276281 0.0998,-0.542412 0.2636,-2.005975 0.20549,-3.948613 -0.16623,-5.556925 -0.14963,-0.647425 -0.41697,-1.455474 -0.64783,-1.958102 -0.10524,-0.229113 -0.17194,-0.434116 -0.14825,-0.455565 0.0394,-0.03568 1.64675,-0.893625 1.67417,-0.893625 0.007,0 0.0777,0.112209 0.15805,0.249354 0.0804,0.137144 0.17181,0.265223 0.20319,0.284619 0.0314,0.0194 0.15091,-0.04565 0.2656,-0.144554 0.42271,-0.364498 2.08641,-1.969886 2.08641,-2.013286 0,-0.0497 -0.9094,0.211394 -2.44125,0.7009 l -1.00618,0.321529 0.16193,0.118538 c 0.41856,0.306388 0.45834,0.241301 -0.44423,0.726793 -0.44999,0.242048 -0.82417,0.431236 -0.8315,0.420418 -0.007,-0.01082 -0.21234,-0.321566 -0.45555,-0.690551 -0.53424,-0.81052 -1.46956,-1.774662 -2.27047,-2.340442 -0.5313,-0.375329 -1.56861,-0.944668 -2.10487,-1.155281 l -0.28306,-0.111172 -0.15982,0.289048 c -0.32623,0.590032 -3.30251,5.895478 -3.3198,5.917811 -0.0192,0.02484 -1.65061,0.387405 -3.29757,0.732863 -0.55495,0.116404 -1.02458,0.195714 -1.04363,0.176245 -0.0191,-0.01947 -0.0494,-0.114796 -0.0675,-0.211836 -0.0289,-0.155152 -0.0135,-0.184455 0.12756,-0.2429 0.26048,-0.107892 0.64603,-0.51878 0.82081,-0.874748 0.14829,-0.302013 0.16278,-0.383942 0.16278,-0.920119 0,-0.521695 -0.0171,-0.625124 -0.15068,-0.910092 -0.20714,-0.441978 -0.39354,-0.67153 -0.73524,-0.905443 -1.16473,-0.797313 -2.63222,-0.112475 -2.83555,1.323272 -0.17018,1.201663 0.60597,2.306328 1.73992,2.476375 0.23321,0.03497 0.26228,0.05609 0.29375,0.213475 0.0192,0.09606 0.0235,0.186095 0.01,0.200069 -0.014,0.01397 -0.59569,0.143117 -1.29269,0.286986 -0.69701,0.14387 -1.25203,0.276843 -1.23338,0.295496 0.0187,0.01865 -0.28231,0.792504 -0.66881,1.71967 -0.41866,1.004329 -0.68848,1.722863 -0.66749,1.77755 0.0312,0.0812 0.12005,0.08759 0.76992,0.05538 0.40409,-0.02003 1.40053,-0.05773 2.21432,-0.08379 l 1.47961,-0.04738 0.31418,0.33781 c 0.17279,0.185795 0.32108,0.355355 0.32953,0.376801 0.008,0.02144 -0.39084,1.206054 -0.8873,2.632466 -0.49646,1.42641 -0.89315,2.602984 -0.88152,2.614608 0.0116,0.01162 0.36851,-0.05118 0.79307,-0.139554 0.54579,-0.11361 0.77763,-0.141773 0.79135,-0.09613 0.0107,0.03551 0.13419,1.562427 0.27448,3.393161 0.22639,2.95436 0.24583,3.34178 0.17291,3.44588 -0.12504,0.17853 -0.1015,0.2614 0.072,0.2535 0.0848,-0.004 0.55776,-0.057 1.05105,-0.11815 z m 8.34532,-11.782722 c -1.846,-0.414031 -4.21401,-0.944653 -5.26225,-1.17916 -1.04824,-0.234507 -1.95524,-0.446457 -2.01554,-0.471001 -0.0927,-0.03772 -0.0559,-0.07329 0.23804,-0.229943 l 0.3477,-0.185318 -0.11257,-0.182134 -0.11257,-0.182134 4.36872,-2.361522 c 2.4028,-1.298836 4.47785,-2.411046 4.61124,-2.471577 0.33658,-0.152744 0.4626,-0.14317 0.54803,0.04163 0.33731,0.729649 0.65309,1.780358 0.84656,2.816804 0.17197,0.921288 0.21689,3.036748 0.0863,4.064045 -0.0988,0.777037 -0.14867,1.093088 -0.17253,1.093088 -0.008,0 -1.52513,-0.338752 -3.37112,-0.752783 z m -13.80479,-2.575061 c 0.31398,-0.759463 0.59051,-1.380842 0.6145,-1.380842 0.024,0 0.5916,0.599089 1.26136,1.33131 l 1.21775,1.331311 -0.21846,0.03883 c -0.12016,0.02135 -0.71036,0.04295 -1.31155,0.04799 -0.6012,0.005 -1.32012,0.02541 -1.59759,0.04527 -0.27748,0.01986 -0.51179,0.02055 -0.5207,0.0015 -0.009,-0.01901 0.2407,-0.655945 0.55469,-1.415409 v -2e-6 z m 4.81483,0.922439 c 0,-0.0405 1.17332,-3.476366 1.20208,-3.520075 0.0196,-0.0297 1.38378,-0.303544 1.43092,-0.287226 0.0295,0.0102 -0.29788,0.649168 -0.72743,1.419936 -0.73486,1.318616 -0.79682,1.410981 -1.04898,1.56369 -0.1474,0.08926 -0.32646,0.198164 -0.39791,0.242005 l -0.1299,0.07971 0.14716,0.192941 c 0.10534,0.138104 0.12633,0.199499 0.0738,0.216013 -0.0403,0.01269 -0.14899,0.04831 -0.24148,0.07914 -0.21867,0.07291 -0.30831,0.07694 -0.30831,0.01386 z m 1.4811,-1.163337 -0.19173,0.09143 0.16525,-0.293365 c 0.0909,-0.161353 0.44131,-0.784781 0.77873,-1.385397 0.33742,-0.600617 0.64772,-1.110658 0.68956,-1.133425 0.0881,-0.04797 7.17407,-1.570525 7.19681,-1.546385 0.008,0.0089 -1.83005,1.01649 -4.08532,2.23919 l -4.10047,2.223088 -0.13056,-0.143281 c -0.12775,-0.140207 -0.13466,-0.14132 -0.32227,-0.05186 z m 2.80988,-5.238862 c 1.42369,-2.510966 2.16143,-3.754715 2.24651,-3.78736 0.14306,-0.0549 1.83272,0.877514 2.46819,1.362025 0.59106,0.450653 1.46505,1.386439 1.88485,2.018107 0.20258,0.304816 0.37651,0.58968 0.38652,0.633031 0.0142,0.06127 -0.88682,0.27467 -4.04585,0.958302 -2.23523,0.483716 -4.07133,0.873994 -4.08023,0.867286 -0.009,-0.0067 0.5041,-0.929834 1.14001,-2.051391 z"
       id="path3750" />
    <path
       id="path3737"
       d="m 123.97511,74.177471 -17.57978,6.171626 2.61827,23.190343 14.58748,8.04182 15.14853,-8.04182 2.80528,-23.190343 z"
       style="display:inline;fill:none;stroke:#ffffff;stroke-width:0.69999999;stroke-linecap:butt;stroke-linejoin:miter;stroke-miterlimit:4;stroke-dasharray:none;stroke-opacity:1" />
  </g>
</svg>
